<svg width="58" height="58" viewBox="0 0 58 58" fill="none" xmlns="http://www.w3.org/2000/svg">
<path d="M56.3464 29.0425C56.3464 32.3031 55.0064 35.251 52.8625 37.395C50.7185 39.5389 47.7706 40.8789 44.51 40.8789H40.8027V38.6903C41.3387 38.333 41.83 37.8863 42.3214 37.4397C44.4653 35.2957 45.8053 32.3478 45.8053 29.0872C45.8053 25.1119 43.84 21.5833 40.8474 19.4394V17.2507H44.5547C51.0312 17.2061 56.3464 22.5213 56.3464 29.0425Z" fill="#00CCEB"/>
<path d="M45.7604 29.0423C45.7604 32.3029 44.4204 35.2508 42.2764 37.3948C41.8298 37.8415 41.2938 38.2881 40.7578 38.6454V33.9109V24.0844V19.3499C43.7951 21.5385 45.7604 25.0671 45.7604 29.0423Z" fill="#08FFFF"/>
<path d="M40.802 40.8788V46.5513C40.802 52.5365 35.9334 57.4051 29.9482 57.4051H28.0276C22.0424 57.4051 17.1738 52.5365 17.1738 46.5513V40.8788H19.6304C21.5957 43.2907 24.633 44.8094 27.9829 44.8094H29.9036C33.2535 44.8094 36.2907 43.2907 38.256 40.8788H40.802Z" fill="#A936A3"/>
<path d="M40.8021 38.6902V40.8789H38.3008C38.6134 40.4769 38.9261 40.0749 39.1941 39.6282C39.7301 39.3602 40.2661 39.0476 40.8021 38.6902Z" fill="#32096D"/>
<path d="M40.8023 33.9557V38.6902C40.311 39.0475 39.775 39.3602 39.1943 39.6729C40.2216 37.9756 40.8023 36.0549 40.8023 33.9557Z" fill="#32096D"/>
<path d="M40.8027 24.1292V33.9556C40.8027 36.0549 40.2221 37.9755 39.1947 39.6282C37.6314 40.4321 35.8448 40.8788 33.9242 40.8788H24.0084C22.1324 40.8788 20.3458 40.4321 18.7378 39.6282C17.7105 37.9755 17.1299 36.0102 17.1299 33.9556V24.1292C17.1299 22.0299 17.7105 20.1093 18.7378 18.4566C20.3011 17.6526 22.0878 17.206 24.0084 17.206H33.9242C35.8001 17.206 37.5868 17.6526 39.1947 18.4566C40.2221 20.1093 40.8027 22.0299 40.8027 24.1292Z" fill="#32096D"/>
<path d="M40.8023 19.3945V24.1291C40.8023 22.0298 40.2216 20.1092 39.1943 18.4566C39.7303 18.7246 40.2663 19.0372 40.8023 19.3945Z" fill="#32096D"/>
<path d="M40.8021 17.206V19.3946C40.3107 19.0373 39.7748 18.7246 39.1941 18.4119C38.9261 17.9653 38.6581 17.5633 38.3008 17.1613H40.8021V17.206Z" fill="#32096D"/>
<path d="M40.802 11.5335V17.2507H38.3007C36.3354 14.8387 33.2981 13.3201 29.9482 13.3201H28.0276C24.633 13.3201 21.6404 14.8387 19.6751 17.2507H17.1738V11.5335C17.1738 5.54825 22.0424 0.679689 28.0276 0.679689H29.9482C35.9334 0.679689 40.802 5.50359 40.802 11.5335Z" fill="#FFAF0E"/>
<path d="M38.3011 17.206C38.6137 17.608 38.9264 18.01 39.1944 18.4566C37.6311 17.6526 35.8445 17.206 33.9238 17.206H38.3011Z" fill="#32096D"/>
<path d="M39.1944 39.6283C38.9264 40.0749 38.6584 40.4769 38.3011 40.8789H33.9238C35.7998 40.8789 37.5864 40.4322 39.1944 39.6283Z" fill="#32096D"/>
<path d="M38.3011 17.2061H33.9239H24.0081H19.6309C21.5962 14.7941 24.6334 13.2755 27.9833 13.2755H29.904C33.2986 13.2755 36.2912 14.7941 38.3011 17.2061Z" fill="#FFD710"/>
<path d="M33.9241 40.8788H38.3014C36.3361 43.2907 33.2988 44.8094 29.9489 44.8094H28.0283C24.6337 44.8094 21.6411 43.2907 19.6758 40.8788H24.053H33.9241Z" fill="#CC4CCC"/>
<path d="M19.6306 17.206H24.0079C22.1319 17.206 20.3453 17.6526 18.7373 18.4566C19.0053 18.01 19.318 17.608 19.6306 17.206Z" fill="#32096D"/>
<path d="M24.0079 40.8789H19.6306C19.318 40.4769 19.0053 40.0749 18.7373 39.6283C20.3453 40.4322 22.1319 40.8789 24.0079 40.8789Z" fill="#32096D"/>
<path d="M17.1299 17.206H19.6312C19.3185 17.608 19.0058 18.01 18.7378 18.4566C18.1572 18.7246 17.6212 19.0373 17.1299 19.4393V17.206Z" fill="#32096D"/>
<path d="M19.6312 40.8789H17.1299V38.6902C17.6212 39.0476 18.1572 39.3602 18.7378 39.6729C19.0058 40.0749 19.3185 40.4769 19.6312 40.8789Z" fill="#32096D"/>
<path d="M18.7378 18.4566C17.7105 20.1092 17.1299 22.0745 17.1299 24.1291V19.3945C17.6212 19.0372 18.2019 18.7246 18.7378 18.4566Z" fill="#32096D"/>
<path d="M17.1299 33.9557C17.1299 36.0549 17.7105 37.9756 18.7378 39.6282C18.1572 39.3602 17.6212 39.0475 17.1299 38.6456V33.9557Z" fill="#32096D"/>
<path d="M17.1296 38.6455V40.8341H13.4223C6.90116 40.8341 1.58594 35.5189 1.58594 28.9977C1.58594 25.7371 2.92591 22.7892 5.06986 20.6452C7.21382 18.5013 10.1618 17.1613 13.4223 17.1613H17.1296V19.3499C16.5936 19.7072 16.1023 20.1539 15.6556 20.6006C13.5117 22.7445 12.1717 25.6925 12.1717 28.9531C12.1717 33.0176 14.137 36.5015 17.1296 38.6455Z" fill="#FF5A00"/>
<path d="M17.1298 33.9557V38.6903C14.1372 36.5463 12.1719 33.0177 12.1719 29.0871C12.1719 25.8265 13.5118 22.8786 15.6558 20.7346C16.1025 20.288 16.5938 19.8413 17.1298 19.484V24.2186V33.9557Z" fill="#FF9100"/>
<path d="M28.8315 25.8711C27.7595 25.9158 27.2682 26.6304 27.2682 28.0597V35.9209H23.1143V28.0597C23.1143 24.2631 25.0349 22.2979 28.8761 22.0745H29.0995C32.9407 22.2532 34.8613 24.2631 34.8613 28.0597V35.9209H30.7074V28.0597C30.7074 26.6304 30.1714 25.8711 29.1441 25.8711H28.8315Z" fill="white"/>
</svg>
