<svg width="555" height="70" viewBox="0 0 555 70" fill="none" xmlns="http://www.w3.org/2000/svg">
<g clip-path="url(#clip0_1_280)">
<path d="M0 69.82H59.18C59.18 69.82 63.47 53.1 48.46 60.39C46.74 50.53 41.74 47.28 29.88 58.55C27.44 46.66 6.86 55.24 0 69.82Z" fill="#68BDFC"/>
<path d="M294.5 9.01H323.48C323.48 9.01 325.58 0.819998 318.23 4.39C317.39 -0.440002 314.94 -2.03 309.13 3.49C307.94 -2.33 297.86 1.87 294.5 9.01Z" fill="#68BDFC"/>
<path d="M491.95 38.16H554.35C554.35 38.16 558.87 20.53 543.05 28.21C541.24 17.81 535.96 14.38 523.45 26.27C520.89 13.75 499.19 22.79 491.95 38.16Z" fill="#68BDFC"/>
</g>
<defs>
<clipPath id="clip0_1_280">
<rect width="554.95" height="69.82" fill="white"/>
</clipPath>
</defs>
</svg>
