<svg width="16" height="16" viewBox="0 0 16 16" fill="none" xmlns="http://www.w3.org/2000/svg">
<path d="M13.793 6.0956L15.8994 11.8445C16.0986 12.598 15.9997 13.3986 15.6232 14.0819C15.2467 14.7653 14.621 15.2794 13.8747 15.5189C13.1284 15.7583 12.3182 15.7048 11.6104 15.3693C10.9025 15.0339 10.3509 14.4419 10.0688 13.7151H6.80712C6.63278 14.3838 6.23501 14.974 5.67896 15.3888C5.1229 15.8037 4.44151 16.0187 3.74636 15.9987C3.05121 15.9787 2.3835 15.7248 1.85256 15.2787C1.32162 14.8325 0.958918 14.2205 0.82385 13.5429C0.575261 13.4139 0.367024 13.2197 0.221774 12.9814C0.0765242 12.7431 -0.000179632 12.4698 3.15891e-07 12.1912V4.5717C3.15891e-07 4.36962 0.080818 4.17582 0.224674 4.03292C0.368531 3.89003 0.563642 3.80975 0.767086 3.80975H6.13669C6.34013 3.80975 6.53524 3.89003 6.6791 4.03292C6.82295 4.17582 6.90377 4.36962 6.90377 4.5717V8.38146C6.90377 8.58354 6.98459 8.77734 7.12845 8.92024C7.2723 9.06313 7.46741 9.14341 7.67086 9.14341H9.20503C9.40847 9.14341 9.60358 9.06313 9.74744 8.92024C9.8913 8.77734 9.97211 8.58354 9.97211 8.38146V1.5239H7.67086V0H10.7392C10.9426 0 11.1378 0.0802767 11.2816 0.22317C11.4255 0.366064 11.5063 0.559869 11.5063 0.761951V1.5239H15.3417V6.0956H13.793ZM14.4703 12.3985C14.3273 12.0217 14.0401 11.7165 13.6713 11.5494C13.3025 11.3824 12.8821 11.3671 12.502 11.5069C12.1219 11.6467 11.8129 11.9302 11.6426 12.2956C11.4723 12.6609 11.4544 13.0784 11.5929 13.4568C11.7315 13.8351 12.0151 14.1437 12.3819 14.315C12.7487 14.4863 13.1688 14.5065 13.5506 14.3711C13.9323 14.2358 14.2446 13.9558 14.4192 13.5925C14.5939 13.2292 14.6166 12.8119 14.4826 12.432L14.4703 12.3985ZM1.53417 6.85755H5.3696V5.33365H1.53417V6.85755ZM11.5063 4.5717H13.8075V3.0478H11.5063V4.5717ZM3.83543 14.4771C4.24232 14.4771 4.63254 14.3165 4.92025 14.0307C5.20796 13.7449 5.3696 13.3573 5.3696 12.9532C5.3696 12.549 5.20796 12.1614 4.92025 11.8756C4.63254 11.5898 4.24232 11.4293 3.83543 11.4293C3.42854 11.4293 3.03832 11.5898 2.75061 11.8756C2.46289 12.1614 2.30126 12.549 2.30126 12.9532C2.30126 13.3573 2.46289 13.7449 2.75061 14.0307C3.03832 14.3165 3.42854 14.4771 3.83543 14.4771Z" fill="#CDCCD6"/>
</svg>
