<svg width="433" height="321" viewBox="0 0 433 321" fill="none" xmlns="http://www.w3.org/2000/svg">
<path d="M332.457 119.616H344.463C346.702 119.616 348.508 121.436 348.508 123.671V131.195C348.508 133.44 346.693 135.25 344.463 135.25H334.746V132.258C331.821 132.258 329.006 131.093 326.937 129.019L325.479 127.557L332.457 119.616Z" fill="#BE653B"/>
<path d="M332.457 119.616L325.479 127.548L295.506 120.568L299.652 109.448L332.457 119.616Z" fill="#BE653B"/>
<path d="M299.652 109.448L301.119 109.899L301.585 121.98L295.506 120.568L299.652 109.448Z" fill="#9A4C28"/>
<path d="M242.259 66.4393C246.21 63.3277 251.908 63.8888 255.189 67.6975L286.281 103.863L291.902 105.759L286.679 119.761L283.729 119.123C279.065 118.111 274.809 115.714 271.519 112.245L241.25 80.3563C237.426 76.335 237.892 69.8739 242.259 66.4393Z" fill="#F48116"/>
<path d="M286.51 120.211L286.68 119.769L291.903 105.767L292.42 104.382C292.717 103.591 293.598 103.183 294.387 103.48L299.525 105.41C300.314 105.708 300.721 106.592 300.424 107.383L300.008 108.505L295.125 121.597L294.523 123.212C294.226 124.003 293.344 124.411 292.556 124.114L287.417 122.184C286.62 121.886 286.213 121.002 286.51 120.211Z" fill="#E4E4E5"/>
<path d="M253.222 69.2108C250.33 65.8442 245.497 64.943 241.597 67.0259C241.809 66.8218 242.03 66.6263 242.267 66.4393C246.218 63.3277 251.916 63.8888 255.197 67.6975L286.289 103.863L291.911 105.759L291.072 108.003L284.763 105.869L253.222 69.2108Z" fill="#FF9C1A"/>
<path d="M253.078 141.695L317.882 158.987C329.083 161.979 334.314 174.893 328.345 184.865L290.572 248.023L269.535 238.663L299.763 181.031L238.206 168.134C226.302 165.635 219.281 153.223 223.275 141.703H253.078V141.695Z" fill="#0044CC"/>
<path d="M272.266 242.973L273.843 240.576L285.798 245.889L282.983 251.024L269.663 247.275C270.477 245.813 271.341 244.376 272.266 242.973Z" fill="#C15F32"/>
<path d="M275.555 253.311L276.666 256.15L275.182 255.105C274.597 254.688 273.894 254.467 273.173 254.467H266.195C267.212 252.002 268.365 249.604 269.671 247.275L282.991 251.024L282.177 252.495H276.107C275.683 252.495 275.394 252.92 275.555 253.311Z" fill="white"/>
<path d="M290.869 265.553H262.634L263.151 263.555C263.948 260.452 264.974 257.426 266.195 254.476H273.173C273.894 254.476 274.598 254.697 275.183 255.113L276.666 256.159L275.556 253.319C275.403 252.928 275.691 252.503 276.115 252.503H282.186L286.671 256.729C288.706 258.641 291.386 259.713 294.175 259.713H297.236C300.229 259.713 302.841 261.387 304.189 263.861L298.364 264.898C295.88 265.332 293.378 265.553 290.869 265.553Z" fill="#422C4F"/>
<path d="M290.868 265.553C293.378 265.553 295.879 265.332 298.355 264.89L304.18 263.853C304.748 264.898 305.096 266.097 305.147 267.364L296.252 268.172C294.845 268.299 293.437 268.367 292.021 268.367H261.921L262.642 265.553H290.868Z" fill="white"/>
<path d="M273.843 240.576L285.798 245.889L284.501 248.244L271.494 244.18L273.843 240.576Z" fill="#9A4C28"/>
<path d="M353.069 135.871H356.13L364.007 163.799C370.171 185.664 367.67 209.044 357.08 229.082L353.239 230.535L353.069 135.871Z" fill="#077AED"/>
<path d="M364.007 163.807L356.13 135.88H358.996L375.157 196.028C376.615 201.443 381.508 205.209 387.104 205.209C387.528 205.209 387.867 205.549 387.867 205.975V217.452L357.072 229.09C367.67 209.052 370.171 185.664 364.007 163.807Z" fill="#056CE5"/>
<path d="M389.978 320.991C413.738 320.991 433 301.679 433 277.855C433 254.031 413.738 234.718 389.978 234.718C366.218 234.718 346.956 254.031 346.956 277.855C346.956 301.679 366.218 320.991 389.978 320.991Z" fill="#121212"/>
<path d="M389.978 308.919C407.089 308.919 420.96 295.011 420.96 277.855C420.96 260.698 407.089 246.79 389.978 246.79C372.867 246.79 358.996 260.698 358.996 277.855C358.996 295.011 372.867 308.919 389.978 308.919Z" fill="#001B66"/>
<path d="M389.978 303.215C403.947 303.215 415.271 291.861 415.271 277.855C415.271 263.849 403.947 252.495 389.978 252.495C376.009 252.495 364.686 263.849 364.686 277.855C364.686 291.861 376.009 303.215 389.978 303.215Z" fill="#649FCB"/>
<path d="M389.978 252.495C394.752 252.495 399.22 253.821 403.036 256.133C401.28 255.691 399.432 255.445 397.541 255.445C385.196 255.445 375.191 265.477 375.191 277.855C375.191 290.233 385.196 300.265 397.541 300.265C399.441 300.265 401.28 300.027 403.036 299.576C399.229 301.88 394.76 303.215 389.978 303.215C376.005 303.215 364.686 291.857 364.686 277.855C364.677 263.853 376.005 252.495 389.978 252.495Z" fill="#171819" fill-opacity="0.1"/>
<path d="M389.978 289.043C396.141 289.043 401.136 284.034 401.136 277.855C401.136 271.676 396.141 266.667 389.978 266.667C383.816 266.667 378.82 271.676 378.82 277.855C378.82 284.034 383.816 289.043 389.978 289.043Z" fill="#00308D"/>
<path d="M395.313 283.211C398.264 280.253 398.264 275.456 395.313 272.498C392.363 269.54 387.58 269.54 384.63 272.498C381.679 275.456 381.679 280.253 384.63 283.211C387.58 286.169 392.363 286.169 395.313 283.211Z" fill="#8695B8"/>
<path d="M168.976 320.991C192.736 320.991 211.998 301.679 211.998 277.855C211.998 254.031 192.736 234.718 168.976 234.718C145.216 234.718 125.954 254.031 125.954 277.855C125.954 301.679 145.216 320.991 168.976 320.991Z" fill="#121212"/>
<path d="M168.976 308.919C186.087 308.919 199.958 295.011 199.958 277.855C199.958 260.698 186.087 246.79 168.976 246.79C151.865 246.79 137.994 260.698 137.994 277.855C137.994 295.011 151.865 308.919 168.976 308.919Z" fill="#001B66"/>
<path d="M168.976 303.215C182.945 303.215 194.269 291.861 194.269 277.855C194.269 263.849 182.945 252.495 168.976 252.495C155.007 252.495 143.684 263.849 143.684 277.855C143.684 291.861 155.007 303.215 168.976 303.215Z" fill="#649FCB"/>
<path d="M168.976 252.495C173.75 252.495 178.218 253.821 182.034 256.133C180.278 255.691 178.43 255.445 176.539 255.445C164.194 255.445 154.189 265.477 154.189 277.855C154.189 290.233 164.194 300.265 176.539 300.265C178.439 300.265 180.278 300.027 182.034 299.576C178.227 301.88 173.758 303.215 168.976 303.215C155.003 303.215 143.684 291.857 143.684 277.855C143.675 263.853 155.003 252.495 168.976 252.495Z" fill="#171819" fill-opacity="0.1"/>
<path d="M168.976 289.043C175.139 289.043 180.134 284.034 180.134 277.855C180.134 271.676 175.139 266.667 168.976 266.667C162.814 266.667 157.818 271.676 157.818 277.855C157.818 284.034 162.814 289.043 168.976 289.043Z" fill="#00308D"/>
<path d="M174.313 283.209C177.263 280.251 177.263 275.455 174.313 272.497C171.363 269.539 166.579 269.539 163.629 272.497C160.679 275.455 160.679 280.251 163.629 283.209C166.579 286.167 171.363 286.167 174.313 283.209Z" fill="#8695B8"/>
<path d="M387.901 220.725C365.737 221.422 346.786 236.98 340.894 258.403L339.935 261.889L338.893 262.399L340.894 255.139C346.786 233.707 365.745 218.157 387.901 217.46C388.469 217.443 389.045 217.435 389.622 217.435C399.161 217.435 408.309 219.926 416.356 224.584L414.889 227.033C407.207 222.901 398.584 220.699 389.622 220.699C389.045 220.691 388.477 220.699 387.901 220.725Z" fill="white"/>
<path d="M383.856 240.244L339.936 261.889L340.894 258.403C346.786 236.971 365.745 221.422 387.901 220.725C388.469 220.708 389.045 220.699 389.622 220.699C398.584 220.699 407.207 222.901 414.889 227.033L407.004 240.244H383.856Z" fill="#337AE2"/>
<path d="M336.815 265.664H357.343C366.568 265.664 375.42 261.991 381.949 255.445C388.477 248.899 397.329 245.226 406.554 245.226H430.897L423.198 237.507C414.296 228.58 402.222 223.564 389.63 223.564C373.41 223.564 358.318 231.862 349.593 245.575L336.815 265.664Z" fill="#0057D8"/>
<path d="M353.07 135.871L360.947 163.799C367.263 186.192 364.491 210.183 353.239 230.535L349.305 237.651C338.172 257.783 317.026 270.28 294.065 270.28H100.271L107.216 245.013C114.067 220.087 130.049 198.68 151.976 185.078L164.525 177.29H272.334V182.009C272.334 185.146 270.341 187.934 267.373 188.929C255.842 192.823 247.558 203.016 246.083 215.131C243.777 234.03 258.488 250.692 277.48 250.692H293.243C308.352 250.692 322.418 242.948 330.516 230.153L337.825 218.616C345.888 205.89 348.644 190.502 345.506 175.76L337.019 135.871H353.07Z" fill="#04286C"/>
<path d="M164.524 177.291H281.041V163.425H188.13C181.669 163.425 175.479 166.043 170.968 170.676L164.524 177.291Z" fill="#FEFFFD"/>
<path d="M232.271 272.193H284.585C308.233 272.193 330.041 259.313 341.496 238.578L345.43 231.462C357.004 210.523 359.802 186.311 353.307 163.28C351.221 155.867 352.188 147.773 355.969 141.074C356.486 140.156 356.164 138.983 355.248 138.464C354.324 137.945 353.163 138.269 352.645 139.187C348.364 146.779 347.27 155.935 349.635 164.326C355.85 186.379 353.18 209.562 342.098 229.609L338.163 236.725C327.378 256.244 306.851 268.367 284.594 268.367H232.279C231.219 268.367 230.363 269.226 230.363 270.288C230.354 271.343 231.211 272.193 232.271 272.193Z" fill="#FAFDFF"/>
<path d="M230.371 262.773H110.505L112.337 264.61C115.271 267.551 119.247 269.2 123.393 269.2H217.746C222.74 269.2 227.429 266.811 230.371 262.773Z" fill="#056CE5"/>
<path d="M178.023 282.522C192.343 282.522 203.951 270.883 203.951 256.525C203.951 242.166 192.343 230.527 178.023 230.527C163.703 230.527 152.094 242.166 152.094 256.525C152.094 270.883 163.703 282.522 178.023 282.522Z" fill="#FAFDFF"/>
<path d="M158.081 256.525C158.081 245.498 167.026 236.529 178.023 236.529C189.02 236.529 197.965 245.498 197.965 256.525C197.965 267.551 189.02 276.52 178.023 276.52C167.026 276.52 158.081 267.551 158.081 256.525ZM160.2 256.525C160.2 266.378 168.196 274.395 178.023 274.395C187.85 274.395 195.846 266.378 195.846 256.525C195.846 246.671 187.85 238.654 178.023 238.654C168.196 238.663 160.2 246.671 160.2 256.525Z" fill="#01328E"/>
<path d="M165.075 257.587H190.97C191.555 257.587 192.03 257.111 192.03 256.525C192.03 255.938 191.555 255.462 190.97 255.462H165.075C164.49 255.462 164.016 255.938 164.016 256.525C164.016 257.111 164.49 257.587 165.075 257.587Z" fill="#495375"/>
<path d="M167.305 253.337H188.749C189.334 253.337 189.808 252.86 189.808 252.274C189.808 251.687 189.334 251.211 188.749 251.211H167.305C166.72 251.211 166.246 251.687 166.246 252.274C166.246 252.86 166.72 253.337 167.305 253.337Z" fill="#495375"/>
<path d="M170.299 249.086H185.747C186.332 249.086 186.807 248.61 186.807 248.023C186.807 247.436 186.332 246.96 185.747 246.96H170.299C169.714 246.96 169.239 247.436 169.239 248.023C169.239 248.601 169.714 249.086 170.299 249.086Z" fill="#495375"/>
<path d="M173.86 244.827H182.186C182.771 244.827 183.246 244.35 183.246 243.764C183.246 243.177 182.771 242.701 182.186 242.701H173.86C173.275 242.701 172.8 243.177 172.8 243.764C172.8 244.35 173.275 244.827 173.86 244.827Z" fill="#495375"/>
<path d="M167.305 261.847H188.749C189.334 261.847 189.808 261.37 189.808 260.784C189.808 260.197 189.334 259.721 188.749 259.721H167.305C166.72 259.721 166.246 260.197 166.246 260.784C166.246 261.37 166.72 261.847 167.305 261.847Z" fill="#495375"/>
<path d="M170.299 266.097H185.747C186.332 266.097 186.807 265.621 186.807 265.035C186.807 264.448 186.332 263.972 185.747 263.972H170.299C169.714 263.972 169.239 264.448 169.239 265.035C169.239 265.621 169.714 266.097 170.299 266.097Z" fill="#01328E"/>
<path d="M173.86 270.348H182.186C182.771 270.348 183.246 269.872 183.246 269.285C183.246 268.699 182.771 268.223 182.186 268.223H173.86C173.275 268.223 172.8 268.699 172.8 269.285C172.8 269.872 173.275 270.348 173.86 270.348Z" fill="#01328E"/>
<path d="M150.043 200.219C162.379 192.704 176.539 188.725 190.97 188.725H195.812C220.4 188.725 241.25 208.891 241.233 233.545C241.225 244.716 237.129 254.926 230.372 262.765H196.558H162.744H110.497L115.093 246.374C120.494 227.109 132.983 210.616 150.043 200.219Z" fill="#077AED"/>
<path d="M156.953 216.967C165.983 211.467 176.352 208.551 186.926 208.551H190.47C208.479 208.551 223.741 223.318 223.733 241.375C223.724 249.553 220.731 257.035 215.779 262.773H191.021H166.263H128.006L131.372 250.769C135.323 236.657 144.463 224.576 156.953 216.967Z" fill="#0057D8"/>
<path d="M156.41 256.15H196.761C197.397 256.15 197.906 255.632 197.906 255.003C197.906 254.374 197.389 253.855 196.761 253.855H156.41C155.774 253.855 155.266 254.374 155.266 255.003C155.266 255.632 155.774 256.15 156.41 256.15Z" fill="white"/>
<path d="M157.648 251.594H197.999C198.635 251.594 199.144 251.075 199.144 250.446C199.144 249.808 198.627 249.298 197.999 249.298H157.648C157.012 249.298 156.503 249.817 156.503 250.446C156.503 251.084 157.012 251.594 157.648 251.594Z" fill="white"/>
<path d="M158.895 247.045H199.246C199.882 247.045 200.39 246.527 200.39 245.898C200.39 245.26 199.873 244.75 199.246 244.75H158.895C158.259 244.75 157.75 245.269 157.75 245.898C157.742 246.527 158.259 247.045 158.895 247.045Z" fill="white"/>
<path d="M160.132 242.489H200.483C201.119 242.489 201.628 241.97 201.628 241.341C201.628 240.712 201.111 240.193 200.483 240.193H160.132C159.497 240.193 158.988 240.712 158.988 241.341C158.988 241.97 159.505 242.489 160.132 242.489Z" fill="white"/>
<path d="M161.379 237.932H201.73C202.366 237.932 202.875 237.413 202.875 236.784C202.875 236.146 202.358 235.636 201.73 235.636H161.379C160.743 235.636 160.234 236.155 160.234 236.784C160.234 237.413 160.743 237.932 161.379 237.932Z" fill="white"/>
<path d="M272.334 177.29H164.524C166.907 179.679 170.146 181.031 173.521 181.031H262.354C266.017 181.023 269.561 179.696 272.334 177.29Z" fill="#908B91"/>
<path d="M337.011 135.871H359.005H369.137V115.229H362.159C356.173 115.229 350.263 116.547 344.837 119.081L339.673 121.495C336.358 123.042 334.62 126.749 335.552 130.303L337.011 135.871Z" fill="#056CE5"/>
<path d="M372.503 115.229H369.128V135.871H372.503V115.229Z" fill="#FCFFFD"/>
<path d="M374.233 115.229H372.512V135.871H374.233V115.229Z" fill="#FF9717"/>
<path d="M113.744 174.332C113.295 173.881 113.295 173.15 113.744 172.708C114.194 172.258 114.914 172.258 115.364 172.708L124.97 182.34H121.723L113.744 174.332Z" fill="#C7D2D7"/>
<path d="M124.971 182.34L140.538 197.949C140.987 198.4 140.987 199.122 140.538 199.573C140.317 199.794 140.021 199.913 139.724 199.913C139.427 199.913 139.139 199.802 138.91 199.573L121.723 182.34H124.971Z" fill="white"/>
<path d="M171.969 186.719H236.629C237.689 186.719 238.545 185.86 238.545 184.797C238.545 183.735 237.689 182.876 236.629 182.876H171.969C167.348 182.876 163.007 181.074 159.743 177.801C155.757 173.805 150.45 171.603 144.811 171.603H81.9148C80.8549 171.603 79.9985 172.462 79.9985 173.524C79.9985 174.587 80.8549 175.446 81.9148 175.446H144.811C149.432 175.446 153.773 177.248 157.038 180.521C161.023 184.508 166.331 186.719 171.969 186.719Z" fill="white"/>
<path d="M353.069 135.871H337.01L337.375 137.614H353.561L353.069 135.871Z" fill="#077AED"/>
<path d="M54.6313 171.597L167.697 171.597L167.697 87.747L54.6313 87.747L54.6313 171.597Z" fill="#F0BF6C"/>
<path d="M51.4006 87.7461L170.936 87.7461L170.936 74.0672L51.4006 74.0672L51.4006 87.7461Z" fill="#F0BF6C"/>
<path d="M54.6313 94.3937L167.697 94.3937L167.697 87.7455L54.6313 87.7455L54.6313 94.3937Z" fill="#EBA25D"/>
<path d="M153.596 104.441L154.104 106.6H111.167L95.7866 104.441H153.596Z" fill="#CC6164"/>
<path d="M152.824 101.04L153.333 103.208H78.0487L62.668 101.04H152.824Z" fill="#CC6164"/>
<path d="M153.596 150.842L154.104 153.002H111.167L95.7866 150.842H153.596Z" fill="#CC6164"/>
<path d="M152.824 147.442L153.333 149.601H78.0487L62.668 147.442H152.824Z" fill="#CC6164"/>
<path d="M253.078 141.695L307.123 157.89C319.078 161.469 324.462 175.395 318.044 186.124L281.016 248.023L259.98 238.663L290.207 181.031L228.651 168.134C216.746 165.635 209.726 153.223 213.719 141.703H253.078V141.695Z" fill="#0159D7"/>
<path d="M262.719 242.973L264.296 240.576L276.251 245.889L273.436 251.024L260.116 247.275C260.93 245.813 261.795 244.376 262.719 242.973Z" fill="#C15F32"/>
<path d="M266 253.311L267.111 256.151L265.627 255.105C265.042 254.688 264.338 254.467 263.618 254.467H256.64C257.657 252.002 258.81 249.604 260.116 247.275L273.436 251.024L272.631 252.495H266.56C266.136 252.495 265.848 252.92 266 253.311Z" fill="white"/>
<path d="M281.322 265.553H253.087L253.604 263.555C254.401 260.452 255.427 257.426 256.648 254.476H263.626C264.347 254.476 265.051 254.697 265.636 255.113L267.119 256.159L266.009 253.32C265.856 252.928 266.144 252.503 266.568 252.503H272.639L277.125 256.729C279.16 258.641 281.839 259.713 284.628 259.713H287.689C290.682 259.713 293.294 261.387 294.642 263.861L288.817 264.899C286.333 265.332 283.831 265.553 281.322 265.553Z" fill="#FB8F13"/>
<path d="M281.321 265.553C283.831 265.553 286.332 265.332 288.808 264.89L294.633 263.853C295.201 264.899 295.549 266.097 295.6 267.364L286.706 268.172C285.298 268.299 283.891 268.367 282.475 268.367H252.375L253.095 265.553H281.321Z" fill="white"/>
<path d="M264.296 240.576L276.251 245.889L274.954 248.244L261.938 244.18L264.296 240.576Z" fill="#9A4C28"/>
<path d="M265.076 45.8147L266.712 36.5055C267.263 33.3939 269.959 31.1155 273.114 31.1155H282.423L281.592 35.5363C280.99 38.7329 281.05 42.023 281.762 45.2025L282.169 47.0049C282.339 47.77 281.762 48.5011 280.982 48.5011H279.1C276.692 57.2237 266.119 60.9473 258.776 55.2853L247.228 46.3928L253.358 50.686C257.86 53.8486 264.118 51.2471 265.076 45.8147Z" fill="#BE653B"/>
<path d="M283.025 27.936L282.423 31.124H273.114C269.959 31.124 267.255 33.3939 266.712 36.514L265.076 45.8232C264.118 51.2556 257.869 53.8571 253.358 50.6945L247.228 46.4013V27.936H283.025Z" fill="#9A4C28"/>
<path d="M247.219 46.4012L258.776 55.2938L257.233 59.7146L247.219 46.4012Z" fill="#422C4F"/>
<path d="M239.139 58.6859L247.219 46.4012L257.233 59.7146L254.613 67.2555L239.139 58.6859Z" fill="#C15F32"/>
<path d="M275.48 38.4693C275.302 39.532 275.624 40.4757 276.2 40.5692C276.777 40.6627 277.379 39.8806 277.557 38.8094C277.735 37.7467 277.413 36.803 276.836 36.7095C276.26 36.616 275.658 37.3981 275.48 38.4693Z" fill="#422C4F"/>
<path d="M278.218 34.7202C277.26 34.1761 276.183 34.2526 275.276 34.8562C274.377 35.4513 273.546 34.006 274.436 33.4109C275.835 32.4843 277.616 32.4503 279.066 33.2749C279.99 33.802 279.151 35.2473 278.218 34.7202Z" fill="#422C4F"/>
<path d="M275.954 44.973L274.089 45.6191C271.359 46.5628 268.399 46.6563 265.618 45.8742L260.963 44.5564L262.057 42.3715L265.618 43.3662C268.408 44.1399 271.359 44.0548 274.089 43.1112L275.954 42.4651C277.607 41.8955 279.295 41.4534 281.016 41.1558L281.686 41.0368L282.296 43.4682L281.016 43.6638C279.295 43.9613 277.599 44.4034 275.954 44.973Z" fill="white"/>
<path d="M260.955 44.5564L265.61 45.8741C268.399 46.6478 271.35 46.5627 274.08 45.6191L275.946 44.973C277.599 44.4034 279.286 43.9613 281.008 43.6637L282.288 43.4682L282.491 44.2673C282.839 45.6616 282.763 47.1238 282.279 48.4671L281.236 51.3576C279.405 56.4245 274.725 59.9101 269.358 60.2077C266.017 60.3947 262.719 59.315 260.124 57.1896L256.241 54.0101L260.955 44.5564Z" fill="#81D3CF"/>
<path opacity="0.3" d="M265.508 43.3407L265.076 45.8231C264.38 49.8018 260.836 52.2503 257.224 52.0377L262.049 42.3715L265.508 43.3407Z" fill="#422C4F"/>
<path d="M258.776 48.4416L262.303 58.5244C262.422 58.8559 262.151 59.196 261.795 59.1535C259.158 58.8389 256.826 57.2917 255.495 54.9877L251.018 47.2089L258.776 48.4416Z" fill="#454F6B"/>
<path d="M262.219 33.0369L260.277 44.0803C259.946 45.9677 257.988 47.0899 256.199 46.4267L237.045 39.3195V25.5725C237.053 11.4515 248.466 0 262.549 0C276.378 0 287.622 11.035 288.028 24.7989H272.003C267.187 24.7989 263.058 28.276 262.219 33.0369Z" fill="#DF4268"/>
<path d="M246.711 20.7607C247.949 20.7607 249.153 20.0891 249.763 18.9074C252.264 14.104 257.165 11.12 262.549 11.12C264.448 11.12 265.992 9.57272 265.992 7.66838C265.992 5.76404 264.448 4.21677 262.549 4.21677C254.596 4.21677 247.355 8.62055 243.667 15.7108C242.785 17.4026 243.438 19.4855 245.125 20.3696C245.634 20.6332 246.176 20.7607 246.711 20.7607Z" fill="white"/>
<path d="M273.08 14.5291C274.14 14.5291 275.191 14.036 275.861 13.1178C276.98 11.5791 276.65 9.41968 275.115 8.29748L274.954 8.17845C273.411 7.06476 271.257 7.42182 270.155 8.9776C269.044 10.5249 269.4 12.6843 270.943 13.7895L271.053 13.866C271.664 14.3165 272.376 14.5291 273.08 14.5291Z" fill="white"/>
<path d="M256.198 46.4267C257.987 47.0898 259.946 45.9676 260.277 44.0803L262.218 33.0369C263.058 28.276 267.187 24.7989 272.012 24.7989H288.037C288.045 25.0539 288.054 25.309 288.054 25.5725V27.9359H272.859C269.146 27.9359 265.975 30.6054 265.33 34.2696L263.397 45.228C262.71 49.1387 258.547 51.3746 254.91 49.7763L238.868 42.7201C237.757 42.227 237.036 41.1303 237.036 39.9146V39.311L256.198 46.4267Z" fill="#A34262"/>
<path d="M257.767 135.795L253.078 115.229L259.81 78.2479C260.616 73.8441 258.522 69.4233 254.613 67.2555L239.139 58.6859C237.112 57.5637 234.603 57.8188 232.847 59.3321C220.095 70.2905 212.117 85.8058 210.616 102.579L207.699 135.072C207.377 138.626 210.175 141.695 213.736 141.695H253.087C256.173 141.695 258.462 138.813 257.767 135.795Z" fill="#FF9C1A"/>
<path d="M234.433 74.0566L234.306 74.5582C232.678 80.8408 233.873 87.523 237.57 92.8535L253.086 115.229L256.241 97.8949L234.433 74.0566Z" fill="#F48116"/>
<path d="M256.063 63.0812L260.319 65.2831L256.063 69.8909L254.613 67.2554L256.063 63.0812Z" fill="#D4E9FF"/>
<path d="M260.319 65.2831L261.285 73.147L256.902 68.9812L260.319 65.2831Z" fill="white"/>
<path d="M236.629 57.9888L241.14 54.0016L257.233 62.8262L255.037 72.1523L236.629 57.9888Z" fill="white"/>
<path d="M327.498 123.459H339.504C341.742 123.459 343.548 125.278 343.548 127.514V135.038C343.548 137.282 341.734 139.093 339.504 139.093H329.787V136.101C326.862 136.101 324.047 134.936 321.978 132.862L320.52 131.399L327.498 123.459Z" fill="#C15F32"/>
<path d="M327.497 123.459L320.519 131.399L290.546 124.411L294.693 113.291L327.497 123.459Z" fill="#C15F32"/>
<path d="M294.693 113.291L296.151 113.75L296.626 125.831L290.546 124.411L294.693 113.291Z" fill="#9A4C28"/>
<path d="M237.299 70.291C241.25 67.1794 246.948 67.7405 250.229 71.5492L281.322 107.715L286.943 109.61L281.72 123.612L278.769 122.975C274.106 121.963 269.85 119.566 266.56 116.097L236.29 84.2079C232.466 80.1782 232.932 73.7256 237.299 70.291Z" fill="#FF9C1A"/>
<path d="M281.551 124.063L281.72 123.62L286.943 109.618L287.46 108.233C287.757 107.442 288.639 107.034 289.428 107.332L294.566 109.261C295.354 109.559 295.761 110.443 295.465 111.234L295.049 112.356L290.165 125.448L289.563 127.064C289.266 127.854 288.385 128.262 287.596 127.965L282.458 126.035C281.661 125.737 281.254 124.853 281.551 124.063Z" fill="white"/>
<path d="M248.262 73.0535C245.371 69.6869 240.538 68.7857 236.638 70.8686C236.85 70.6646 237.07 70.469 237.308 70.282C241.259 67.1704 246.957 67.7315 250.238 71.5402L281.33 107.706L286.951 109.601L286.112 111.846L279.804 109.712L248.262 73.0535Z" fill="#F48114"/>
<path d="M325.844 136.084C324.928 134.409 322.842 133.797 321.172 134.715L321.164 134.723C321.231 134.681 321.291 134.621 321.367 134.587L329.066 130.362C330.736 129.444 332.822 130.056 333.738 131.731C334.653 133.406 334.043 135.497 332.373 136.415L324.691 140.641C326.183 139.663 326.717 137.682 325.844 136.084Z" fill="#422C4F"/>
<path d="M323.021 141.066C321.808 141.066 320.621 140.419 320.002 139.272C319.129 137.673 319.663 135.701 321.164 134.723L321.172 134.715C322.843 133.797 324.928 134.409 325.844 136.084C326.717 137.682 326.183 139.654 324.683 140.632L324.674 140.641C324.148 140.93 323.58 141.066 323.021 141.066Z" fill="#495375"/>
<path d="M143.896 14.5291H269.468V12.0467H143.896V14.5291Z" fill="url(#paint0_linear_1_118)"/>
<path d="M129.057 19.4685H254.63V16.986H129.057V19.4685Z" fill="url(#paint1_linear_1_118)"/>
<path d="M231.567 207.318H357.148V204.844H231.567V207.318Z" fill="url(#paint2_linear_1_118)"/>
<path d="M216.729 212.257H342.31V209.783H216.729V212.257Z" fill="url(#paint3_linear_1_118)"/>
<path d="M127.421 73.3936H252.993V70.9196H127.421V73.3936Z" fill="url(#paint4_linear_1_118)"/>
<path d="M73.6987 68.4967H246.032V66.0142H73.6987V68.4967Z" fill="url(#paint5_linear_1_118)"/>
<path d="M92.9458 63.0812H265.279V60.5988H92.9458V63.0812Z" fill="url(#paint6_linear_1_118)"/>
<path d="M215.389 131.952H340.97V129.469H215.389V131.952Z" fill="url(#paint7_linear_1_118)"/>
<path d="M161.675 127.047H334.009V124.573H161.675V127.047Z" fill="url(#paint8_linear_1_118)"/>
<path d="M180.922 121.64H353.256V119.157H180.922V121.64Z" fill="url(#paint9_linear_1_118)"/>
<path d="M17.2119 206.306H142.793V203.824H17.2119V206.306Z" fill="url(#paint10_linear_1_118)"/>
<path d="M0 201.401H172.333V198.927H0V201.401Z" fill="url(#paint11_linear_1_118)"/>
<path d="M19.2471 195.985H191.581V193.511H19.2471V195.985Z" fill="url(#paint12_linear_1_118)"/>
<defs>
<linearGradient id="paint0_linear_1_118" x1="269.472" y1="13.2905" x2="143.892" y2="13.2905" gradientUnits="userSpaceOnUse">
<stop stop-color="#7FCBD0" stop-opacity="0"/>
<stop offset="0.5443" stop-color="#7FCBD0"/>
<stop offset="0.9884" stop-color="#7FCBD0" stop-opacity="0"/>
</linearGradient>
<linearGradient id="paint1_linear_1_118" x1="254.633" y1="18.2298" x2="129.053" y2="18.2298" gradientUnits="userSpaceOnUse">
<stop stop-color="#7FCBD0" stop-opacity="0"/>
<stop offset="0.5443" stop-color="#7FCBD0"/>
<stop offset="0.9884" stop-color="#7FCBD0" stop-opacity="0"/>
</linearGradient>
<linearGradient id="paint2_linear_1_118" x1="357.147" y1="206.082" x2="231.567" y2="206.082" gradientUnits="userSpaceOnUse">
<stop stop-color="#7FCBD0" stop-opacity="0"/>
<stop offset="0.5443" stop-color="#7FCBD0"/>
<stop offset="0.9884" stop-color="#7FCBD0" stop-opacity="0"/>
</linearGradient>
<linearGradient id="paint3_linear_1_118" x1="342.309" y1="211.021" x2="216.729" y2="211.021" gradientUnits="userSpaceOnUse">
<stop stop-color="#7FCBD0" stop-opacity="0"/>
<stop offset="0.5443" stop-color="#7FCBD0"/>
<stop offset="0.9884" stop-color="#7FCBD0" stop-opacity="0"/>
</linearGradient>
<linearGradient id="paint4_linear_1_118" x1="252.997" y1="72.1555" x2="127.417" y2="72.1555" gradientUnits="userSpaceOnUse">
<stop stop-color="#7FCBD0" stop-opacity="0"/>
<stop offset="0.5443" stop-color="#7FCBD0"/>
<stop offset="0.9884" stop-color="#7FCBD0" stop-opacity="0"/>
</linearGradient>
<linearGradient id="paint5_linear_1_118" x1="246.036" y1="67.2549" x2="73.7015" y2="67.2549" gradientUnits="userSpaceOnUse">
<stop stop-color="#7FCBD0" stop-opacity="0"/>
<stop offset="0.5443" stop-color="#7FCBD0"/>
<stop offset="0.9884" stop-color="#7FCBD0" stop-opacity="0"/>
</linearGradient>
<linearGradient id="paint6_linear_1_118" x1="265.281" y1="61.8401" x2="92.9456" y2="61.8401" gradientUnits="userSpaceOnUse">
<stop stop-color="#7FCBD0" stop-opacity="0"/>
<stop offset="0.5443" stop-color="#7FCBD0"/>
<stop offset="0.9884" stop-color="#7FCBD0" stop-opacity="0"/>
</linearGradient>
<linearGradient id="paint7_linear_1_118" x1="340.972" y1="130.711" x2="215.392" y2="130.711" gradientUnits="userSpaceOnUse">
<stop stop-color="#7FCBD0" stop-opacity="0"/>
<stop offset="0.5443" stop-color="#7FCBD0"/>
<stop offset="0.9884" stop-color="#7FCBD0" stop-opacity="0"/>
</linearGradient>
<linearGradient id="paint8_linear_1_118" x1="334.011" y1="125.81" x2="161.676" y2="125.81" gradientUnits="userSpaceOnUse">
<stop stop-color="#7FCBD0" stop-opacity="0"/>
<stop offset="0.5443" stop-color="#7FCBD0"/>
<stop offset="0.9884" stop-color="#7FCBD0" stop-opacity="0"/>
</linearGradient>
<linearGradient id="paint9_linear_1_118" x1="353.255" y1="120.395" x2="180.921" y2="120.395" gradientUnits="userSpaceOnUse">
<stop stop-color="#7FCBD0" stop-opacity="0"/>
<stop offset="0.5443" stop-color="#7FCBD0"/>
<stop offset="0.9884" stop-color="#7FCBD0" stop-opacity="0"/>
</linearGradient>
<linearGradient id="paint10_linear_1_118" x1="142.793" y1="205.065" x2="17.2135" y2="205.065" gradientUnits="userSpaceOnUse">
<stop stop-color="#7FCBD0" stop-opacity="0"/>
<stop offset="0.5443" stop-color="#7FCBD0"/>
<stop offset="0.9884" stop-color="#7FCBD0" stop-opacity="0"/>
</linearGradient>
<linearGradient id="paint11_linear_1_118" x1="172.335" y1="200.164" x2="0" y2="200.164" gradientUnits="userSpaceOnUse">
<stop stop-color="#7FCBD0" stop-opacity="0"/>
<stop offset="0.5443" stop-color="#7FCBD0"/>
<stop offset="0.9884" stop-color="#7FCBD0" stop-opacity="0"/>
</linearGradient>
<linearGradient id="paint12_linear_1_118" x1="191.579" y1="194.749" x2="19.2441" y2="194.749" gradientUnits="userSpaceOnUse">
<stop stop-color="#7FCBD0" stop-opacity="0"/>
<stop offset="0.5443" stop-color="#7FCBD0"/>
<stop offset="0.9884" stop-color="#7FCBD0" stop-opacity="0"/>
</linearGradient>
</defs>
</svg>
