<svg width="16" height="16" viewBox="0 0 16 16" fill="none" xmlns="http://www.w3.org/2000/svg">
<path d="M0 3.55556C0 1.59188 1.59188 0 3.55556 0C5.51924 0 7.11111 1.59188 7.11111 3.55556C7.11111 5.51924 5.51924 7.11111 3.55556 7.11111C1.59188 7.11111 0 5.51924 0 3.55556ZM0 12.4444C0 10.4808 1.59188 8.88889 3.55556 8.88889C5.51924 8.88889 7.11111 10.4808 7.11111 12.4444C7.11111 14.4081 5.51924 16 3.55556 16C1.59188 16 0 14.4081 0 12.4444ZM8.88889 3.55556C8.88889 1.59188 10.4808 0 12.4444 0C14.4081 0 16 1.59188 16 3.55556C16 5.51924 14.4081 7.11111 12.4444 7.11111C10.4808 7.11111 8.88889 5.51924 8.88889 3.55556ZM8.88889 12.4444C8.88889 10.4808 10.4808 8.88889 12.4444 8.88889C14.4081 8.88889 16 10.4808 16 12.4444C16 14.4081 14.4081 16 12.4444 16C10.4808 16 8.88889 14.4081 8.88889 12.4444Z" fill="#CDCCD6"/>
</svg>
