<svg width="12" height="12" viewBox="0 0 12 12" fill="none" xmlns="http://www.w3.org/2000/svg">
<path fill-rule="evenodd" clip-rule="evenodd" d="M5.31461 0C8.25163 0 10.6292 2.3749 10.6292 5.3086L10.6293 5.30862C10.6293 6.62152 10.154 7.8232 9.34269 8.75907L12 11.4134L11.4127 12L8.7554 9.3457C7.83206 10.1424 6.62905 10.6172 5.31461 10.6172C2.37759 10.6172 0 8.22805 0 5.3086C0 2.38915 2.37759 0 5.31461 0ZM0.839243 5.3086C0.839243 7.7676 2.85292 9.779 5.3147 9.779C7.79005 9.779 9.79017 7.7676 9.79017 5.3086C9.79017 2.8496 7.77649 0.8382 5.3147 0.8382C2.85292 0.8382 0.839243 2.8496 0.839243 5.3086Z" fill="#262626" fill-opacity="0.5"/>
</svg>
